<?xml version="1.0" encoding="UTF-8" standalone="no"?>
<svg
   xmlns:dc="http://purl.org/dc/elements/1.1/"
   xmlns:cc="http://creativecommons.org/ns#"
   xmlns:rdf="http://www.w3.org/1999/02/22-rdf-syntax-ns#"
   xmlns:svg="http://www.w3.org/2000/svg"
   xmlns="http://www.w3.org/2000/svg"
   xmlns:sodipodi="http://sodipodi.sourceforge.net/DTD/sodipodi-0.dtd"
   xmlns:inkscape="http://www.inkscape.org/namespaces/inkscape"
   viewBox="0 0 128 128"
   version="1.1"
   id="svg62"
   sodipodi:docname="logo.svg"
   width="128"
   height="128"
   inkscape:version="1.0.1 (3bc2e813f5, 2020-09-07)"
   inkscape:export-filename="D:\_repos\_github\az-pipelines-2-sharepoint\logo.png"
   inkscape:export-xdpi="24"
   inkscape:export-ydpi="24">
  <metadata
     id="metadata68">
    <rdf:RDF>
      <cc:Work
         rdf:about="">
        <dc:format>image/svg+xml</dc:format>
        <dc:type
           rdf:resource="http://purl.org/dc/dcmitype/StillImage" />
        <dc:title></dc:title>
      </cc:Work>
    </rdf:RDF>
  </metadata>
  <defs
     id="defs66" />
  <sodipodi:namedview
     pagecolor="#ffffff"
     bordercolor="#666666"
     borderopacity="1"
     objecttolerance="10"
     gridtolerance="10"
     guidetolerance="10"
     inkscape:pageopacity="0"
     inkscape:pageshadow="2"
     inkscape:window-width="1920"
     inkscape:window-height="1017"
     id="namedview64"
     showgrid="false"
     inkscape:zoom="4.5685727"
     inkscape:cx="39.911494"
     inkscape:cy="75.690094"
     inkscape:window-x="-8"
     inkscape:window-y="-8"
     inkscape:window-maximized="1"
     inkscape:current-layer="svg62"
     scale-x="1" />
  <path
     fill="none"
     d="M 3.3639401,5.6143797 H 132.44376 V 134.69421 H 3.3639401 Z"
     id="path58"
     style="stroke-width:0.999998" />
  <path
     id="path74"
     style="fill:#1a9ba1;fill-opacity:1;stroke-width:1.50873"
     inkscape:transform-center-x="0.086124015"
     inkscape:transform-center-y="-6.5890095"
     d="M 123.39213,43.455972 37.060355,43.297281 80.484618,3.6045434 Z m -56.839368,-10.8394 h 29.392197 c 2.234701,0 4.033738,1.79905 4.033738,4.033746 v 80.274932 c 0,2.2347 -1.799037,4.03373 -4.033738,4.03373 H 66.552762 c -2.23469,0 -4.03374,-1.79903 -4.03374,-4.03373 V 36.650318 c 0,-2.234696 1.79905,-4.033746 4.03374,-4.033746 z" />
  <path
     id="path46-2"
     d="m 47.392183,33.854441 -10.32859,9.446208 25.45513,0.04728 v 38.879938 a 38.344773,38.344773 0 0 0 1.355089,0.03146 c 1.117347,0 2.219632,-0.05692 3.316807,-0.149692 l 0.01573,0.157558 a 26.219338,26.219338 0 0 0 -4.687655,0.551485 v 27.676852 h 8.075368 a 5.3931162,5.3931162 0 0 0 5.380953,-5.38095 V 39.227515 a 5.3931162,5.3931162 0 0 0 -5.380926,-5.373074 z"
     style="display:inline;opacity:0.1;fill:#000000;fill-opacity:1;stroke-width:0.999998" />
  <path
     id="path48-4"
     style="display:inline;opacity:0.2;fill:#000000;fill-opacity:1;stroke-width:0.999998"
     d="m 42.980275,37.888184 -5.916682,5.412465 25.45513,0.04728 v 38.879938 a 38.34074,38.34074 0 0 0 1.355089,0.03146 c 1.117347,0 2.219628,-0.05692 3.316807,-0.149692 l 0.01573,0.157558 a 26.239507,26.239507 0 0 0 -4.687655,0.551485 v 31.710592 h 4.041623 a 5.3931162,5.3931162 0 0 0 5.380954,-5.38095 V 43.26126 a 5.3931162,5.3931162 0 0 0 -5.380925,-5.373076 z" />
  <path
     id="path50-3"
     style="display:inline;opacity:0.2;fill:#000000;fill-opacity:1;stroke-width:0.999998"
     d="m 42.988153,37.880306 -5.92456,5.412465 25.45513,0.04728 v 38.887816 a 38.34074,38.34074 0 0 0 1.355089,0.0238 c 1.117347,0 2.219628,-0.04905 3.316807,-0.141827 l 0.0238,0.149693 a 26.219338,26.219338 0 0 0 -4.695532,0.559363 v 23.635214 h 4.041623 a 5.3931162,5.3931162 0 0 0 5.380955,-5.37306 V 43.26126 a 5.3931162,5.3931162 0 0 0 -5.381118,-5.380954 z" />
  <path
     id="path52-3"
     style="display:inline;opacity:0.2;fill:#000000;fill-opacity:1;stroke-width:0.999998"
     d="m 42.980275,37.888184 -5.916682,5.412465 25.45513,0.04728 v 38.879938 a 38.34074,38.34074 0 0 0 1.355089,0.03146 c 1.117347,0 2.219628,-0.05692 3.316807,-0.149692 l 0.01573,0.157558 a 26.219338,26.219338 0 0 0 -4.687655,0.551485 v 23.643102 h 0.0081 a 5.3931162,5.3931162 0 0 0 5.380954,-5.38095 V 43.26126 a 5.3931162,5.3931162 0 0 0 -5.381091,-5.373076 z" />
  <path
     data-name="Back Plate"
     d="M 8.7409206,37.884336 H 62.526868 a 5.3769812,5.3769812 0 0 1 5.376981,5.376984 v 53.785951 a 5.3769812,5.3769812 0 0 1 -5.376981,5.376989 H 8.7409206 A 5.3769812,5.3769812 0 0 1 3.3639401,97.047271 V 43.26132 a 5.3769812,5.3769812 0 0 1 5.3769805,-5.376984 z"
     fill="#03787c"
     id="path54"
     style="display:inline;stroke-width:0.999998" />
  <path
     d="m 26.23527,69.448389 a 10.669254,10.669254 0 0 1 -3.315738,-3.509359 9.5236706,9.5236706 0 0 1 -1.157684,-4.800155 9.2372744,9.2372744 0 0 1 2.149986,-6.216 12.674024,12.674024 0 0 1 5.711782,-3.727179 24.129859,24.129859 0 0 1 7.805295,-1.210125 29.664156,29.664156 0 0 1 10.282014,1.440048 v 7.260739 a 16.078505,16.078505 0 0 0 -4.650907,-1.899894 22.572833,22.572833 0 0 0 -5.441521,-0.653466 11.802736,11.802736 0 0 0 -5.59077,1.181887 3.6707074,3.6707074 0 0 0 -2.214526,3.36011 3.4044802,3.4044802 0 0 0 0.939863,2.379908 8.5596055,8.5596055 0 0 0 2.529158,1.807118 q 1.589294,0.790614 4.743684,2.097547 a 4.9695731,4.9695731 0 0 1 0.681701,0.270261 39.115219,39.115219 0 0 1 5.982043,2.952701 10.705557,10.705557 0 0 1 3.537594,3.561796 10.318318,10.318318 0 0 1 1.278697,5.372947 10.003686,10.003686 0 0 1 -2.012838,6.47416 11.250113,11.250113 0 0 1 -5.38505,3.614235 24.40012,24.40012 0 0 1 -7.67218,1.117347 40.450388,40.450388 0 0 1 -6.946109,-0.572791 23.847496,23.847496 0 0 1 -5.647241,-1.629634 v -7.672181 a 18.15185,18.15185 0 0 0 5.711781,2.722777 22.238033,22.238033 0 0 0 6.284573,1.008436 10.810435,10.810435 0 0 0 5.699681,-1.210123 3.8199559,3.8199559 0 0 0 1.916029,-3.416581 3.6465049,3.6465049 0 0 0 -1.072976,-2.613866 10.907245,10.907245 0 0 0 -2.964801,-2.065278 Q 35.524984,73.921811 31.826039,72.372853 A 31.705231,31.705231 0 0 1 26.23527,69.448389 Z"
     fill="#ffffff"
     id="path56"
     style="display:inline;stroke-width:0.999998" />
</svg>
